<svg width="512" height="512" viewBox="0 0 512 512" fill="none" xmlns="http://www.w3.org/2000/svg">
<rect width="512" height="512" fill="white"/>
<path d="M75.0352 202.469C75.0352 202.469 65.9358 195.914 76.8585 187.162L102.299 164.432C102.299 164.432 109.575 156.787 117.277 163.444L352.02 341.03V426.18C352.02 426.18 351.901 439.545 334.742 438.081L75.0352 202.469Z" fill="#2489CA"/>
<path d="M135.527 257.362L75.0351 312.324C75.0351 312.324 68.8155 316.938 75.0351 325.196L103.134 350.718C103.134 350.718 109.814 357.869 119.663 349.731L183.801 301.137L135.527 257.362Z" fill="#1070B3"/>
<path d="M241.754 257.822L352.719 173.166L352.003 88.4595C352.003 88.4595 347.266 69.9688 331.453 79.5887L183.784 213.877L241.754 257.822Z" fill="#0877B9"/>
<path d="M334.708 438.2C341.149 444.79 348.97 442.627 348.97 442.627L435.448 400.044C446.524 392.501 444.956 383.154 444.956 383.154V128.914C444.956 117.745 433.506 113.88 433.506 113.88L358.564 77.7839C342.188 67.6702 331.453 79.6057 331.453 79.6057C331.453 79.6057 345.256 69.6793 352.003 88.4765V424.647C352.003 426.963 351.509 429.227 350.521 431.271C348.544 435.255 344.267 438.967 333.992 437.4L334.708 438.2Z" fill="#3C99D4"/>
</svg>
