<svg width="512" height="512" viewBox="0 0 512 512" fill="none" xmlns="http://www.w3.org/2000/svg">
<rect width="512" height="512" fill="white"/>
<path fill-rule="evenodd" clip-rule="evenodd" d="M150.503 166.337C164.56 110.112 199.74 82 256.006 82C340.423 82 350.954 145.223 393.15 155.78C421.289 162.814 445.902 152.281 467 124.169C452.943 180.381 417.763 208.494 361.509 208.494C277.092 208.494 266.561 145.271 224.365 134.714C196.226 127.68 171.613 138.213 150.515 166.325L150.503 166.337ZM45 292.831C59.0816 236.606 94.2251 208.494 150.503 208.494C234.92 208.494 245.451 271.717 287.647 282.274C315.786 289.308 340.399 278.775 361.497 250.663C347.44 306.888 312.26 335 255.994 335C171.577 335 161.046 271.777 118.85 261.22C90.7107 254.186 66.0982 264.719 45 292.831V292.831Z" fill="url(#paint0_linear_238_27)"/>
<path fill-rule="evenodd" clip-rule="evenodd" d="M64.7465 388.217H50V379.285H89.7839V388.217H75.0438V428.735H64.7465V388.217ZM109.044 424.164C107.679 425.736 106.067 427.069 104.272 428.109C102.519 429.126 100.242 429.635 97.4505 429.635C95.9095 429.642 94.375 429.432 92.8918 429.009C91.4474 428.592 90.1836 427.946 89.1133 427.072C88.0429 426.199 87.1789 425.084 86.547 423.714C85.9151 422.345 85.5798 420.728 85.5798 418.824C85.5798 416.333 86.1279 414.299 87.2305 412.728C88.3356 411.15 89.8233 409.886 91.5506 409.057C93.3303 408.176 95.3291 407.557 97.5472 407.185C99.7854 406.812 102.044 406.582 104.311 406.494L108.902 406.285V404.486C108.902 402.269 108.302 400.743 107.084 399.921C105.865 399.1 104.44 398.683 102.802 398.683C98.998 398.683 96.8315 400.137 96.2898 403.051L87.5206 402.223C88.1525 398.441 89.8032 395.703 92.4533 394.008C95.1034 392.312 98.6756 391.478 103.157 391.478C105.897 391.478 108.231 391.804 110.153 392.482C112.074 393.16 113.622 394.112 114.783 395.351C115.972 396.639 116.843 398.194 117.323 399.889C117.852 401.662 118.11 403.671 118.11 405.888V428.742H109.044V424.177V424.164ZM108.838 412.597L104.582 412.806C102.57 412.891 100.945 413.106 99.7137 413.432C98.4822 413.758 97.5214 414.162 96.8766 414.645C96.2318 415.127 95.7611 415.688 95.5419 416.34C95.3227 416.992 95.2001 417.709 95.2001 418.492C95.2001 419.691 95.6128 420.643 96.4253 421.328C97.2377 422.013 98.3919 422.371 99.8427 422.371C102.319 422.371 104.33 421.797 105.878 420.637C106.748 419.985 107.464 419.163 108.006 418.179C108.547 417.194 108.825 415.949 108.825 414.475V412.604L108.838 412.597ZM125.899 392.58H135.506V428.729H125.899V392.58ZM125.77 379.278H135.635V388.002H125.77V379.278ZM143.721 379.278H153.328V428.729H143.721V379.278ZM157.629 392.58H168.049L173.059 416.542L179.907 392.925H188.276L194.724 416.614L199.734 392.651H209.748L199.322 428.8H189.992L183.608 404.975L177.16 428.8H168.043L157.623 392.651L157.629 392.58ZM214.113 392.58H223.721V428.729H214.113V392.58ZM213.984 379.278H223.85V388.002H213.984V379.278ZM231.871 392.58H241.201V397.568C242.62 395.449 244.296 393.897 246.231 392.925C248.165 391.954 250.196 391.471 252.292 391.471C256.367 391.471 259.384 392.547 261.351 394.692C263.318 396.837 264.304 400.221 264.304 404.838V428.729H254.703V406.162C254.703 403.553 254.226 401.891 253.259 400.965C252.292 400.039 251.021 399.582 249.422 399.582C248.197 399.582 247.127 399.778 246.231 400.137C245.334 400.495 244.503 401.036 243.729 401.728C243.084 402.38 242.549 403.149 242.117 404.049C241.684 404.967 241.464 405.973 241.472 406.99V428.735H231.8V392.586L231.871 392.58ZM296.866 423.956C295.663 425.812 294.011 427.327 292.067 428.357C290.123 429.388 287.951 429.899 285.757 429.844C280.727 429.844 276.987 428.135 274.505 424.718C272.022 421.302 270.804 416.568 270.804 410.524C270.775 407.911 271.136 405.308 271.874 402.804C272.583 400.469 273.596 398.461 274.924 396.779C276.228 395.114 277.894 393.775 279.792 392.866C281.727 391.954 283.887 391.484 286.305 391.484C288.084 391.484 289.851 391.81 291.611 392.462C293.372 393.114 295.029 394.418 296.589 396.205V379.304H306.197V428.755H296.873V423.975L296.866 423.956ZM296.66 410.243C296.66 407.935 296.467 406.09 296.015 404.701C295.564 403.312 294.996 402.191 294.132 401.31C293.307 400.482 292.404 400.006 291.424 399.68C290.475 399.429 289.498 399.302 288.516 399.302C287.489 399.297 286.472 399.511 285.531 399.928C284.589 400.345 283.777 400.991 283.061 401.865C282.346 402.738 281.791 403.899 281.385 405.32C280.979 406.742 280.766 408.45 280.766 410.445C280.766 412.61 280.959 414.423 281.411 415.883C281.862 417.344 282.333 418.518 283.023 419.417C283.713 420.317 284.506 420.963 285.421 421.354C286.337 421.745 287.323 422.006 288.374 422.006C290.657 422.006 292.533 421.334 293.997 419.998C294.921 419.054 295.612 417.903 296.015 416.64C296.441 415.323 296.66 413.627 296.66 411.554V410.315V410.243ZM371.727 411.626C371.495 414.26 370.889 416.692 369.909 418.928C368.957 421.12 367.583 423.097 365.866 424.745C364.046 426.451 361.897 427.759 359.553 428.585C357.064 429.498 354.176 429.967 350.881 429.967C347.18 429.967 343.917 429.341 341.106 428.096C338.383 426.916 335.966 425.115 334.045 422.834C332.143 420.572 330.718 417.833 329.757 414.618C328.797 411.404 328.319 407.863 328.319 403.99C328.319 399.974 328.835 396.374 329.893 393.186C330.95 389.997 332.459 387.278 334.419 385.016C336.379 382.753 338.765 381.019 341.551 379.819C344.336 378.619 347.502 378.02 351.029 378.02C354.137 378.02 356.852 378.411 359.154 379.193C361.456 379.976 363.409 381.11 364.989 382.584C366.569 384.057 367.826 385.844 368.793 387.917C369.798 390.146 370.511 392.498 370.915 394.914L360.759 396.231C360.256 393.323 359.276 391.034 357.858 389.372C356.439 387.709 354.131 386.881 351.023 386.881C347.09 386.881 344.104 388.367 342.079 391.347C340.055 394.327 339.017 398.533 339.017 403.984C339.017 409.48 340.113 413.764 342.279 416.659C343.26 418.072 344.572 419.217 346.098 419.991C347.624 420.764 349.316 421.143 351.023 421.093C354.182 421.093 356.503 420.272 357.987 418.635C359.47 416.998 360.392 414.658 360.759 411.606L371.727 411.626ZM386.667 412.604C386.893 415.649 387.866 417.866 389.569 419.254C391.271 420.643 393.805 421.341 397.145 421.341C398.744 421.341 400.098 421.165 401.194 420.819C402.29 420.474 403.18 420.011 403.87 419.437C404.528 418.899 405.035 418.195 405.34 417.396C405.645 416.577 405.796 415.708 405.785 414.834C405.785 413.53 405.315 412.323 404.354 411.195C403.393 410.067 401.633 409.239 399.066 408.737L392.683 407.563C390.104 407.107 387.95 406.501 386.029 405.764C384.107 405.027 382.495 404.068 381.193 402.895C379.89 401.721 378.897 400.274 378.214 398.565C377.53 396.857 377.182 394.823 377.182 392.469C377.14 390.306 377.623 388.166 378.588 386.235C379.52 384.444 380.859 382.902 382.495 381.736C384.172 380.536 386.171 379.624 388.492 378.998C390.813 378.372 393.392 378.065 396.178 378.065C399.744 378.065 402.716 378.483 405.095 379.304C407.475 380.126 409.396 381.228 410.86 382.597C412.323 383.966 413.407 385.531 414.116 387.344C414.825 389.156 415.296 391.015 415.535 392.951L405.863 394.19C405.36 391.465 404.393 389.495 402.961 388.302C401.53 387.109 399.337 386.503 396.41 386.503C394.669 386.503 393.25 386.653 392.122 386.959C390.994 387.265 390.097 387.65 389.414 388.133C388.784 388.549 388.284 389.137 387.97 389.828C387.699 390.48 387.557 391.145 387.557 391.836C387.557 393.682 388.073 395.07 389.104 395.99C390.136 396.909 391.877 397.633 394.347 398.141L401.065 399.459C406.372 400.521 410.26 402.243 412.736 404.61C415.212 406.977 416.437 410.478 416.437 414.892C416.437 417.057 416.037 419.065 415.238 420.891C414.418 422.736 413.197 424.37 411.666 425.67C409.923 427.126 407.908 428.211 405.74 428.859C403.367 429.622 400.582 430 397.371 430C390.691 430 385.584 428.566 382.044 425.67C378.504 422.775 376.589 418.498 376.241 412.617H386.596L386.667 412.604ZM431.158 412.604C431.384 415.649 432.357 417.866 434.06 419.254C435.762 420.643 438.315 421.341 441.636 421.341C443.248 421.341 444.589 421.165 445.698 420.819C446.807 420.474 447.684 420.011 448.374 419.437C449.032 418.899 449.539 418.195 449.844 417.396C450.149 416.577 450.299 415.708 450.289 414.834C450.27 413.483 449.758 412.187 448.851 411.195C447.884 410.067 446.13 409.239 443.564 408.737L437.18 407.563C434.601 407.107 432.447 406.501 430.526 405.764C428.605 405.027 426.993 404.068 425.69 402.895C424.388 401.721 423.395 400.274 422.705 398.565C422.015 396.857 421.673 394.823 421.673 392.469C421.631 390.306 422.113 388.166 423.079 386.235C424.02 384.436 425.323 382.929 426.986 381.671C428.65 380.413 430.661 379.558 432.983 378.932C435.304 378.306 437.883 378 440.669 378C444.234 378 447.207 378.417 449.586 379.239C451.965 380.06 453.881 381.162 455.351 382.532C456.821 383.901 457.904 385.466 458.607 387.278C459.31 389.091 459.787 390.949 460.025 392.886L450.354 394.125C449.851 391.399 448.883 389.43 447.452 388.237C446.02 387.044 443.828 386.437 440.901 386.437C439.16 386.437 437.741 386.587 436.613 386.894C435.484 387.2 434.588 387.585 433.905 388.067C433.275 388.484 432.775 389.071 432.46 389.763C432.183 390.415 432.048 391.08 432.048 391.771C432.048 393.616 432.564 395.005 433.595 395.925C434.627 396.844 436.368 397.568 438.844 398.076L445.627 399.446C450.934 400.508 454.822 402.23 457.298 404.597C459.774 406.964 460.999 410.465 460.999 414.879C461.022 416.94 460.613 418.982 459.8 420.871C458.982 422.717 457.761 424.352 456.228 425.651C454.654 427.02 452.681 428.076 450.295 428.846C447.91 429.615 445.137 429.987 441.932 429.987C435.252 429.987 430.146 428.552 426.599 425.657C423.053 422.762 421.144 418.485 420.873 412.604H431.158Z" fill="#24292E"/>
<defs>
<linearGradient id="paint0_linear_238_27" x1="45" y1="-142.839" x2="466.415" y2="560.178" gradientUnits="userSpaceOnUse">
<stop stop-color="#2383AE"/>
<stop offset="1" stop-color="#6DD7B9"/>
</linearGradient>
</defs>
</svg>
